# xmcd CD database file
#
# Track frame offsets:
#	150
#	14175
#	31575
#
# Disc length: 730 seconds
#
# Revision: 1
# Processed by: cddbd v1.5.1PL0 Copyright (c) Steve Scherf et al.
# Submitted via: freeDBTagger 0.5
#
DISCID=1b02d803
DTITLE=矢野絢子 - 氷の世界
DYEAR=1900
DGENRE=rock
TTITLE0=氷の世界
TTITLE1=ゼンマイ仕掛け
TTITLE2=クローバー
EXTD=
EXTT0=
EXTT1=
EXTT2=
PLAYORDER=
